<mxfile host="app.diagrams.net" modified="2023-12-30T07:13:32.481Z" agent="Mozilla/5.0 (Windows NT 10.0; Win64; x64) AppleWebKit/537.36 (KHTML, like Gecko) Chrome/120.0.0.0 Safari/537.36" etag="NppE4a94JP56jfF4Axp5" version="22.1.16" type="device" pages="4">
  <diagram id="R2lEEEUBdFMjLlhIrx00" name="ERD">
    <mxGraphModel dx="1900" dy="569" grid="1" gridSize="10" guides="1" tooltips="1" connect="1" arrows="1" fold="1" page="1" pageScale="1" pageWidth="850" pageHeight="1100" math="0" shadow="0" extFonts="Permanent Marker^https://fonts.googleapis.com/css?family=Permanent+Marker">
      <root>
        <mxCell id="0" />
        <mxCell id="1" parent="0" />
        <mxCell id="C-vyLk0tnHw3VtMMgP7b-2" value="Vendor" style="shape=table;startSize=30;container=1;collapsible=1;childLayout=tableLayout;fixedRows=1;rowLines=0;fontStyle=1;align=center;resizeLast=1;" parent="1" vertex="1">
          <mxGeometry x="390" y="430" width="260" height="130" as="geometry" />
        </mxCell>
        <mxCell id="C-vyLk0tnHw3VtMMgP7b-3" value="" style="shape=partialRectangle;collapsible=0;dropTarget=0;pointerEvents=0;fillColor=none;points=[[0,0.5],[1,0.5]];portConstraint=eastwest;top=0;left=0;right=0;bottom=1;" parent="C-vyLk0tnHw3VtMMgP7b-2" vertex="1">
          <mxGeometry y="30" width="260" height="30" as="geometry" />
        </mxCell>
        <mxCell id="C-vyLk0tnHw3VtMMgP7b-4" value="PK" style="shape=partialRectangle;overflow=hidden;connectable=0;fillColor=none;top=0;left=0;bottom=0;right=0;fontStyle=1;" parent="C-vyLk0tnHw3VtMMgP7b-3" vertex="1">
          <mxGeometry width="30" height="30" as="geometry">
            <mxRectangle width="30" height="30" as="alternateBounds" />
          </mxGeometry>
        </mxCell>
        <mxCell id="C-vyLk0tnHw3VtMMgP7b-5" value="vendor_id int NOT NULL " style="shape=partialRectangle;overflow=hidden;connectable=0;fillColor=none;top=0;left=0;bottom=0;right=0;align=left;spacingLeft=6;fontStyle=5;" parent="C-vyLk0tnHw3VtMMgP7b-3" vertex="1">
          <mxGeometry x="30" width="230" height="30" as="geometry">
            <mxRectangle width="230" height="30" as="alternateBounds" />
          </mxGeometry>
        </mxCell>
        <mxCell id="C-vyLk0tnHw3VtMMgP7b-6" value="" style="shape=partialRectangle;collapsible=0;dropTarget=0;pointerEvents=0;fillColor=none;points=[[0,0.5],[1,0.5]];portConstraint=eastwest;top=0;left=0;right=0;bottom=0;" parent="C-vyLk0tnHw3VtMMgP7b-2" vertex="1">
          <mxGeometry y="60" width="260" height="30" as="geometry" />
        </mxCell>
        <mxCell id="C-vyLk0tnHw3VtMMgP7b-7" value="" style="shape=partialRectangle;overflow=hidden;connectable=0;fillColor=none;top=0;left=0;bottom=0;right=0;" parent="C-vyLk0tnHw3VtMMgP7b-6" vertex="1">
          <mxGeometry width="30" height="30" as="geometry">
            <mxRectangle width="30" height="30" as="alternateBounds" />
          </mxGeometry>
        </mxCell>
        <mxCell id="C-vyLk0tnHw3VtMMgP7b-8" value="bidang_usaha char(50) NOT NULL" style="shape=partialRectangle;overflow=hidden;connectable=0;fillColor=none;top=0;left=0;bottom=0;right=0;align=left;spacingLeft=6;" parent="C-vyLk0tnHw3VtMMgP7b-6" vertex="1">
          <mxGeometry x="30" width="230" height="30" as="geometry">
            <mxRectangle width="230" height="30" as="alternateBounds" />
          </mxGeometry>
        </mxCell>
        <mxCell id="C-vyLk0tnHw3VtMMgP7b-9" value="" style="shape=partialRectangle;collapsible=0;dropTarget=0;pointerEvents=0;fillColor=none;points=[[0,0.5],[1,0.5]];portConstraint=eastwest;top=0;left=0;right=0;bottom=0;" parent="C-vyLk0tnHw3VtMMgP7b-2" vertex="1">
          <mxGeometry y="90" width="260" height="30" as="geometry" />
        </mxCell>
        <mxCell id="C-vyLk0tnHw3VtMMgP7b-10" value="" style="shape=partialRectangle;overflow=hidden;connectable=0;fillColor=none;top=0;left=0;bottom=0;right=0;" parent="C-vyLk0tnHw3VtMMgP7b-9" vertex="1">
          <mxGeometry width="30" height="30" as="geometry">
            <mxRectangle width="30" height="30" as="alternateBounds" />
          </mxGeometry>
        </mxCell>
        <mxCell id="C-vyLk0tnHw3VtMMgP7b-11" value="jenis_perusahaan char(50) NOT NULL" style="shape=partialRectangle;overflow=hidden;connectable=0;fillColor=none;top=0;left=0;bottom=0;right=0;align=left;spacingLeft=6;" parent="C-vyLk0tnHw3VtMMgP7b-9" vertex="1">
          <mxGeometry x="30" width="230" height="30" as="geometry">
            <mxRectangle width="230" height="30" as="alternateBounds" />
          </mxGeometry>
        </mxCell>
        <mxCell id="C-vyLk0tnHw3VtMMgP7b-13" value="Manager" style="shape=table;startSize=30;container=1;collapsible=1;childLayout=tableLayout;fixedRows=1;rowLines=0;fontStyle=1;align=center;resizeLast=1;" parent="1" vertex="1">
          <mxGeometry x="-330" y="480" width="250" height="130" as="geometry" />
        </mxCell>
        <mxCell id="C-vyLk0tnHw3VtMMgP7b-14" value="" style="shape=partialRectangle;collapsible=0;dropTarget=0;pointerEvents=0;fillColor=none;points=[[0,0.5],[1,0.5]];portConstraint=eastwest;top=0;left=0;right=0;bottom=1;" parent="C-vyLk0tnHw3VtMMgP7b-13" vertex="1">
          <mxGeometry y="30" width="250" height="30" as="geometry" />
        </mxCell>
        <mxCell id="C-vyLk0tnHw3VtMMgP7b-15" value="PK" style="shape=partialRectangle;overflow=hidden;connectable=0;fillColor=none;top=0;left=0;bottom=0;right=0;fontStyle=1;" parent="C-vyLk0tnHw3VtMMgP7b-14" vertex="1">
          <mxGeometry width="30" height="30" as="geometry">
            <mxRectangle width="30" height="30" as="alternateBounds" />
          </mxGeometry>
        </mxCell>
        <mxCell id="C-vyLk0tnHw3VtMMgP7b-16" value="manager_id int NOT NULL " style="shape=partialRectangle;overflow=hidden;connectable=0;fillColor=none;top=0;left=0;bottom=0;right=0;align=left;spacingLeft=6;fontStyle=5;" parent="C-vyLk0tnHw3VtMMgP7b-14" vertex="1">
          <mxGeometry x="30" width="220" height="30" as="geometry">
            <mxRectangle width="220" height="30" as="alternateBounds" />
          </mxGeometry>
        </mxCell>
        <mxCell id="C-vyLk0tnHw3VtMMgP7b-17" value="" style="shape=partialRectangle;collapsible=0;dropTarget=0;pointerEvents=0;fillColor=none;points=[[0,0.5],[1,0.5]];portConstraint=eastwest;top=0;left=0;right=0;bottom=0;" parent="C-vyLk0tnHw3VtMMgP7b-13" vertex="1">
          <mxGeometry y="60" width="250" height="30" as="geometry" />
        </mxCell>
        <mxCell id="C-vyLk0tnHw3VtMMgP7b-18" value="" style="shape=partialRectangle;overflow=hidden;connectable=0;fillColor=none;top=0;left=0;bottom=0;right=0;" parent="C-vyLk0tnHw3VtMMgP7b-17" vertex="1">
          <mxGeometry width="30" height="30" as="geometry">
            <mxRectangle width="30" height="30" as="alternateBounds" />
          </mxGeometry>
        </mxCell>
        <mxCell id="C-vyLk0tnHw3VtMMgP7b-19" value="manager_name char(50) NOT NULL" style="shape=partialRectangle;overflow=hidden;connectable=0;fillColor=none;top=0;left=0;bottom=0;right=0;align=left;spacingLeft=6;" parent="C-vyLk0tnHw3VtMMgP7b-17" vertex="1">
          <mxGeometry x="30" width="220" height="30" as="geometry">
            <mxRectangle width="220" height="30" as="alternateBounds" />
          </mxGeometry>
        </mxCell>
        <mxCell id="C-vyLk0tnHw3VtMMgP7b-20" value="" style="shape=partialRectangle;collapsible=0;dropTarget=0;pointerEvents=0;fillColor=none;points=[[0,0.5],[1,0.5]];portConstraint=eastwest;top=0;left=0;right=0;bottom=0;" parent="C-vyLk0tnHw3VtMMgP7b-13" vertex="1">
          <mxGeometry y="90" width="250" height="30" as="geometry" />
        </mxCell>
        <mxCell id="C-vyLk0tnHw3VtMMgP7b-21" value="" style="shape=partialRectangle;overflow=hidden;connectable=0;fillColor=none;top=0;left=0;bottom=0;right=0;" parent="C-vyLk0tnHw3VtMMgP7b-20" vertex="1">
          <mxGeometry width="30" height="30" as="geometry">
            <mxRectangle width="30" height="30" as="alternateBounds" />
          </mxGeometry>
        </mxCell>
        <mxCell id="C-vyLk0tnHw3VtMMgP7b-22" value="manger_email char(50) NOT NULL" style="shape=partialRectangle;overflow=hidden;connectable=0;fillColor=none;top=0;left=0;bottom=0;right=0;align=left;spacingLeft=6;" parent="C-vyLk0tnHw3VtMMgP7b-20" vertex="1">
          <mxGeometry x="30" width="220" height="30" as="geometry">
            <mxRectangle width="220" height="30" as="alternateBounds" />
          </mxGeometry>
        </mxCell>
        <mxCell id="C-vyLk0tnHw3VtMMgP7b-23" value="Perusahaan" style="shape=table;startSize=30;container=1;collapsible=1;childLayout=tableLayout;fixedRows=1;rowLines=0;fontStyle=1;align=center;resizeLast=1;" parent="1" vertex="1">
          <mxGeometry x="390" y="230" width="260" height="190" as="geometry" />
        </mxCell>
        <mxCell id="C-vyLk0tnHw3VtMMgP7b-24" value="" style="shape=partialRectangle;collapsible=0;dropTarget=0;pointerEvents=0;fillColor=none;points=[[0,0.5],[1,0.5]];portConstraint=eastwest;top=0;left=0;right=0;bottom=1;" parent="C-vyLk0tnHw3VtMMgP7b-23" vertex="1">
          <mxGeometry y="30" width="260" height="30" as="geometry" />
        </mxCell>
        <mxCell id="C-vyLk0tnHw3VtMMgP7b-25" value="PK" style="shape=partialRectangle;overflow=hidden;connectable=0;fillColor=none;top=0;left=0;bottom=0;right=0;fontStyle=1;" parent="C-vyLk0tnHw3VtMMgP7b-24" vertex="1">
          <mxGeometry width="30" height="30" as="geometry">
            <mxRectangle width="30" height="30" as="alternateBounds" />
          </mxGeometry>
        </mxCell>
        <mxCell id="C-vyLk0tnHw3VtMMgP7b-26" value="perusahaan_id int NOT NULL " style="shape=partialRectangle;overflow=hidden;connectable=0;fillColor=none;top=0;left=0;bottom=0;right=0;align=left;spacingLeft=6;fontStyle=5;" parent="C-vyLk0tnHw3VtMMgP7b-24" vertex="1">
          <mxGeometry x="30" width="230" height="30" as="geometry">
            <mxRectangle width="230" height="30" as="alternateBounds" />
          </mxGeometry>
        </mxCell>
        <mxCell id="C-vyLk0tnHw3VtMMgP7b-27" value="" style="shape=partialRectangle;collapsible=0;dropTarget=0;pointerEvents=0;fillColor=none;points=[[0,0.5],[1,0.5]];portConstraint=eastwest;top=0;left=0;right=0;bottom=0;" parent="C-vyLk0tnHw3VtMMgP7b-23" vertex="1">
          <mxGeometry y="60" width="260" height="30" as="geometry" />
        </mxCell>
        <mxCell id="C-vyLk0tnHw3VtMMgP7b-28" value="" style="shape=partialRectangle;overflow=hidden;connectable=0;fillColor=none;top=0;left=0;bottom=0;right=0;" parent="C-vyLk0tnHw3VtMMgP7b-27" vertex="1">
          <mxGeometry width="30" height="30" as="geometry">
            <mxRectangle width="30" height="30" as="alternateBounds" />
          </mxGeometry>
        </mxCell>
        <mxCell id="C-vyLk0tnHw3VtMMgP7b-29" value="perusahaan_nama char(50) NOT NULL" style="shape=partialRectangle;overflow=hidden;connectable=0;fillColor=none;top=0;left=0;bottom=0;right=0;align=left;spacingLeft=6;" parent="C-vyLk0tnHw3VtMMgP7b-27" vertex="1">
          <mxGeometry x="30" width="230" height="30" as="geometry">
            <mxRectangle width="230" height="30" as="alternateBounds" />
          </mxGeometry>
        </mxCell>
        <mxCell id="bvoiwfPhXzFO3JbGnkVZ-21" style="shape=partialRectangle;collapsible=0;dropTarget=0;pointerEvents=0;fillColor=none;points=[[0,0.5],[1,0.5]];portConstraint=eastwest;top=0;left=0;right=0;bottom=0;" vertex="1" parent="C-vyLk0tnHw3VtMMgP7b-23">
          <mxGeometry y="90" width="260" height="30" as="geometry" />
        </mxCell>
        <mxCell id="bvoiwfPhXzFO3JbGnkVZ-22" style="shape=partialRectangle;overflow=hidden;connectable=0;fillColor=none;top=0;left=0;bottom=0;right=0;" vertex="1" parent="bvoiwfPhXzFO3JbGnkVZ-21">
          <mxGeometry width="30" height="30" as="geometry">
            <mxRectangle width="30" height="30" as="alternateBounds" />
          </mxGeometry>
        </mxCell>
        <mxCell id="bvoiwfPhXzFO3JbGnkVZ-23" value="perusahaan_email char(50) NOT NULL" style="shape=partialRectangle;overflow=hidden;connectable=0;fillColor=none;top=0;left=0;bottom=0;right=0;align=left;spacingLeft=6;" vertex="1" parent="bvoiwfPhXzFO3JbGnkVZ-21">
          <mxGeometry x="30" width="230" height="30" as="geometry">
            <mxRectangle width="230" height="30" as="alternateBounds" />
          </mxGeometry>
        </mxCell>
        <mxCell id="bvoiwfPhXzFO3JbGnkVZ-25" style="shape=partialRectangle;collapsible=0;dropTarget=0;pointerEvents=0;fillColor=none;points=[[0,0.5],[1,0.5]];portConstraint=eastwest;top=0;left=0;right=0;bottom=0;" vertex="1" parent="C-vyLk0tnHw3VtMMgP7b-23">
          <mxGeometry y="120" width="260" height="30" as="geometry" />
        </mxCell>
        <mxCell id="bvoiwfPhXzFO3JbGnkVZ-26" style="shape=partialRectangle;overflow=hidden;connectable=0;fillColor=none;top=0;left=0;bottom=0;right=0;" vertex="1" parent="bvoiwfPhXzFO3JbGnkVZ-25">
          <mxGeometry width="30" height="30" as="geometry">
            <mxRectangle width="30" height="30" as="alternateBounds" />
          </mxGeometry>
        </mxCell>
        <mxCell id="bvoiwfPhXzFO3JbGnkVZ-27" value="perusahaan_nomor char(15) NOT NULL" style="shape=partialRectangle;overflow=hidden;connectable=0;fillColor=none;top=0;left=0;bottom=0;right=0;align=left;spacingLeft=6;" vertex="1" parent="bvoiwfPhXzFO3JbGnkVZ-25">
          <mxGeometry x="30" width="230" height="30" as="geometry">
            <mxRectangle width="230" height="30" as="alternateBounds" />
          </mxGeometry>
        </mxCell>
        <mxCell id="bvoiwfPhXzFO3JbGnkVZ-28" style="shape=partialRectangle;collapsible=0;dropTarget=0;pointerEvents=0;fillColor=none;points=[[0,0.5],[1,0.5]];portConstraint=eastwest;top=0;left=0;right=0;bottom=0;" vertex="1" parent="C-vyLk0tnHw3VtMMgP7b-23">
          <mxGeometry y="150" width="260" height="30" as="geometry" />
        </mxCell>
        <mxCell id="bvoiwfPhXzFO3JbGnkVZ-29" style="shape=partialRectangle;overflow=hidden;connectable=0;fillColor=none;top=0;left=0;bottom=0;right=0;" vertex="1" parent="bvoiwfPhXzFO3JbGnkVZ-28">
          <mxGeometry width="30" height="30" as="geometry">
            <mxRectangle width="30" height="30" as="alternateBounds" />
          </mxGeometry>
        </mxCell>
        <mxCell id="bvoiwfPhXzFO3JbGnkVZ-30" value="perusahaan_foto char(50) NOT NULL" style="shape=partialRectangle;overflow=hidden;connectable=0;fillColor=none;top=0;left=0;bottom=0;right=0;align=left;spacingLeft=6;" vertex="1" parent="bvoiwfPhXzFO3JbGnkVZ-28">
          <mxGeometry x="30" width="230" height="30" as="geometry">
            <mxRectangle width="230" height="30" as="alternateBounds" />
          </mxGeometry>
        </mxCell>
        <mxCell id="bvoiwfPhXzFO3JbGnkVZ-1" value="Registrasi" style="shape=table;startSize=30;container=1;collapsible=1;childLayout=tableLayout;fixedRows=1;rowLines=0;fontStyle=1;align=center;resizeLast=1;" vertex="1" parent="1">
          <mxGeometry x="-20" y="370" width="290" height="220" as="geometry" />
        </mxCell>
        <mxCell id="bvoiwfPhXzFO3JbGnkVZ-2" value="" style="shape=partialRectangle;collapsible=0;dropTarget=0;pointerEvents=0;fillColor=none;points=[[0,0.5],[1,0.5]];portConstraint=eastwest;top=0;left=0;right=0;bottom=1;" vertex="1" parent="bvoiwfPhXzFO3JbGnkVZ-1">
          <mxGeometry y="30" width="290" height="30" as="geometry" />
        </mxCell>
        <mxCell id="bvoiwfPhXzFO3JbGnkVZ-3" value="PK" style="shape=partialRectangle;overflow=hidden;connectable=0;fillColor=none;top=0;left=0;bottom=0;right=0;fontStyle=1;" vertex="1" parent="bvoiwfPhXzFO3JbGnkVZ-2">
          <mxGeometry width="30" height="30" as="geometry">
            <mxRectangle width="30" height="30" as="alternateBounds" />
          </mxGeometry>
        </mxCell>
        <mxCell id="bvoiwfPhXzFO3JbGnkVZ-4" value="registrasi_id int NOT NULL " style="shape=partialRectangle;overflow=hidden;connectable=0;fillColor=none;top=0;left=0;bottom=0;right=0;align=left;spacingLeft=6;fontStyle=5;" vertex="1" parent="bvoiwfPhXzFO3JbGnkVZ-2">
          <mxGeometry x="30" width="260" height="30" as="geometry">
            <mxRectangle width="260" height="30" as="alternateBounds" />
          </mxGeometry>
        </mxCell>
        <mxCell id="bvoiwfPhXzFO3JbGnkVZ-5" value="" style="shape=partialRectangle;collapsible=0;dropTarget=0;pointerEvents=0;fillColor=none;points=[[0,0.5],[1,0.5]];portConstraint=eastwest;top=0;left=0;right=0;bottom=0;" vertex="1" parent="bvoiwfPhXzFO3JbGnkVZ-1">
          <mxGeometry y="60" width="290" height="30" as="geometry" />
        </mxCell>
        <mxCell id="bvoiwfPhXzFO3JbGnkVZ-6" value="FK" style="shape=partialRectangle;overflow=hidden;connectable=0;fillColor=none;top=0;left=0;bottom=0;right=0;" vertex="1" parent="bvoiwfPhXzFO3JbGnkVZ-5">
          <mxGeometry width="30" height="30" as="geometry">
            <mxRectangle width="30" height="30" as="alternateBounds" />
          </mxGeometry>
        </mxCell>
        <mxCell id="bvoiwfPhXzFO3JbGnkVZ-7" value="perusahaan_id int NOT NULL" style="shape=partialRectangle;overflow=hidden;connectable=0;fillColor=none;top=0;left=0;bottom=0;right=0;align=left;spacingLeft=6;" vertex="1" parent="bvoiwfPhXzFO3JbGnkVZ-5">
          <mxGeometry x="30" width="260" height="30" as="geometry">
            <mxRectangle width="260" height="30" as="alternateBounds" />
          </mxGeometry>
        </mxCell>
        <mxCell id="bvoiwfPhXzFO3JbGnkVZ-42" style="shape=partialRectangle;collapsible=0;dropTarget=0;pointerEvents=0;fillColor=none;points=[[0,0.5],[1,0.5]];portConstraint=eastwest;top=0;left=0;right=0;bottom=0;" vertex="1" parent="bvoiwfPhXzFO3JbGnkVZ-1">
          <mxGeometry y="90" width="290" height="30" as="geometry" />
        </mxCell>
        <mxCell id="bvoiwfPhXzFO3JbGnkVZ-43" value="FK" style="shape=partialRectangle;overflow=hidden;connectable=0;fillColor=none;top=0;left=0;bottom=0;right=0;" vertex="1" parent="bvoiwfPhXzFO3JbGnkVZ-42">
          <mxGeometry width="30" height="30" as="geometry">
            <mxRectangle width="30" height="30" as="alternateBounds" />
          </mxGeometry>
        </mxCell>
        <mxCell id="bvoiwfPhXzFO3JbGnkVZ-44" value="vendor_id int NOT NULL" style="shape=partialRectangle;overflow=hidden;connectable=0;fillColor=none;top=0;left=0;bottom=0;right=0;align=left;spacingLeft=6;" vertex="1" parent="bvoiwfPhXzFO3JbGnkVZ-42">
          <mxGeometry x="30" width="260" height="30" as="geometry">
            <mxRectangle width="260" height="30" as="alternateBounds" />
          </mxGeometry>
        </mxCell>
        <mxCell id="bvoiwfPhXzFO3JbGnkVZ-45" style="shape=partialRectangle;collapsible=0;dropTarget=0;pointerEvents=0;fillColor=none;points=[[0,0.5],[1,0.5]];portConstraint=eastwest;top=0;left=0;right=0;bottom=0;" vertex="1" parent="bvoiwfPhXzFO3JbGnkVZ-1">
          <mxGeometry y="120" width="290" height="30" as="geometry" />
        </mxCell>
        <mxCell id="bvoiwfPhXzFO3JbGnkVZ-46" value="FK" style="shape=partialRectangle;overflow=hidden;connectable=0;fillColor=none;top=0;left=0;bottom=0;right=0;" vertex="1" parent="bvoiwfPhXzFO3JbGnkVZ-45">
          <mxGeometry width="30" height="30" as="geometry">
            <mxRectangle width="30" height="30" as="alternateBounds" />
          </mxGeometry>
        </mxCell>
        <mxCell id="bvoiwfPhXzFO3JbGnkVZ-47" value="manager_id int NOT NULL" style="shape=partialRectangle;overflow=hidden;connectable=0;fillColor=none;top=0;left=0;bottom=0;right=0;align=left;spacingLeft=6;" vertex="1" parent="bvoiwfPhXzFO3JbGnkVZ-45">
          <mxGeometry x="30" width="260" height="30" as="geometry">
            <mxRectangle width="260" height="30" as="alternateBounds" />
          </mxGeometry>
        </mxCell>
        <mxCell id="bvoiwfPhXzFO3JbGnkVZ-48" style="shape=partialRectangle;collapsible=0;dropTarget=0;pointerEvents=0;fillColor=none;points=[[0,0.5],[1,0.5]];portConstraint=eastwest;top=0;left=0;right=0;bottom=0;" vertex="1" parent="bvoiwfPhXzFO3JbGnkVZ-1">
          <mxGeometry y="150" width="290" height="30" as="geometry" />
        </mxCell>
        <mxCell id="bvoiwfPhXzFO3JbGnkVZ-49" style="shape=partialRectangle;overflow=hidden;connectable=0;fillColor=none;top=0;left=0;bottom=0;right=0;" vertex="1" parent="bvoiwfPhXzFO3JbGnkVZ-48">
          <mxGeometry width="30" height="30" as="geometry">
            <mxRectangle width="30" height="30" as="alternateBounds" />
          </mxGeometry>
        </mxCell>
        <mxCell id="bvoiwfPhXzFO3JbGnkVZ-50" value="status_perusahaan ENUM(Approve,Reject)" style="shape=partialRectangle;overflow=hidden;connectable=0;fillColor=none;top=0;left=0;bottom=0;right=0;align=left;spacingLeft=6;" vertex="1" parent="bvoiwfPhXzFO3JbGnkVZ-48">
          <mxGeometry x="30" width="260" height="30" as="geometry">
            <mxRectangle width="260" height="30" as="alternateBounds" />
          </mxGeometry>
        </mxCell>
        <mxCell id="bvoiwfPhXzFO3JbGnkVZ-54" style="shape=partialRectangle;collapsible=0;dropTarget=0;pointerEvents=0;fillColor=none;points=[[0,0.5],[1,0.5]];portConstraint=eastwest;top=0;left=0;right=0;bottom=0;" vertex="1" parent="bvoiwfPhXzFO3JbGnkVZ-1">
          <mxGeometry y="180" width="290" height="30" as="geometry" />
        </mxCell>
        <mxCell id="bvoiwfPhXzFO3JbGnkVZ-55" style="shape=partialRectangle;overflow=hidden;connectable=0;fillColor=none;top=0;left=0;bottom=0;right=0;" vertex="1" parent="bvoiwfPhXzFO3JbGnkVZ-54">
          <mxGeometry width="30" height="30" as="geometry">
            <mxRectangle width="30" height="30" as="alternateBounds" />
          </mxGeometry>
        </mxCell>
        <mxCell id="bvoiwfPhXzFO3JbGnkVZ-56" value="status_Vendor ENUM(Approve,Reject)" style="shape=partialRectangle;overflow=hidden;connectable=0;fillColor=none;top=0;left=0;bottom=0;right=0;align=left;spacingLeft=6;" vertex="1" parent="bvoiwfPhXzFO3JbGnkVZ-54">
          <mxGeometry x="30" width="260" height="30" as="geometry">
            <mxRectangle width="260" height="30" as="alternateBounds" />
          </mxGeometry>
        </mxCell>
        <mxCell id="bvoiwfPhXzFO3JbGnkVZ-63" value="" style="edgeStyle=entityRelationEdgeStyle;fontSize=12;html=1;endArrow=ERmandOne;startArrow=ERmandOne;rounded=0;entryX=0;entryY=0.5;entryDx=0;entryDy=0;" edge="1" parent="1" source="bvoiwfPhXzFO3JbGnkVZ-42" target="C-vyLk0tnHw3VtMMgP7b-3">
          <mxGeometry width="100" height="100" relative="1" as="geometry">
            <mxPoint x="150" y="420" as="sourcePoint" />
            <mxPoint x="250" y="320" as="targetPoint" />
          </mxGeometry>
        </mxCell>
        <mxCell id="bvoiwfPhXzFO3JbGnkVZ-64" value="" style="edgeStyle=entityRelationEdgeStyle;fontSize=12;html=1;endArrow=ERoneToMany;rounded=0;" edge="1" parent="1" source="C-vyLk0tnHw3VtMMgP7b-14" target="bvoiwfPhXzFO3JbGnkVZ-45">
          <mxGeometry width="100" height="100" relative="1" as="geometry">
            <mxPoint x="150" y="420" as="sourcePoint" />
            <mxPoint x="250" y="320" as="targetPoint" />
          </mxGeometry>
        </mxCell>
        <mxCell id="bvoiwfPhXzFO3JbGnkVZ-65" value="" style="edgeStyle=entityRelationEdgeStyle;fontSize=12;html=1;endArrow=ERoneToMany;rounded=0;exitX=0;exitY=0.5;exitDx=0;exitDy=0;" edge="1" parent="1" source="C-vyLk0tnHw3VtMMgP7b-24" target="bvoiwfPhXzFO3JbGnkVZ-5">
          <mxGeometry width="100" height="100" relative="1" as="geometry">
            <mxPoint x="150" y="420" as="sourcePoint" />
            <mxPoint x="250" y="320" as="targetPoint" />
            <Array as="points">
              <mxPoint x="130" y="220" />
              <mxPoint x="-140" y="330" />
              <mxPoint x="160" y="220" />
              <mxPoint x="-140" y="310" />
            </Array>
          </mxGeometry>
        </mxCell>
      </root>
    </mxGraphModel>
  </diagram>
  <diagram id="i2KAYholiPknsl7JnXsc" name="UML">
    <mxGraphModel dx="1050" dy="569" grid="1" gridSize="10" guides="1" tooltips="1" connect="1" arrows="1" fold="1" page="1" pageScale="1" pageWidth="850" pageHeight="1100" math="0" shadow="0">
      <root>
        <mxCell id="0" />
        <mxCell id="1" parent="0" />
        <mxCell id="6k20LuFGrxwpXatOsY1x-1" value="" style="swimlane;startSize=0;" vertex="1" parent="1">
          <mxGeometry x="40" y="440" width="760" height="600" as="geometry">
            <mxRectangle x="320" y="630" width="50" height="40" as="alternateBounds" />
          </mxGeometry>
        </mxCell>
        <mxCell id="6k20LuFGrxwpXatOsY1x-3" value="" style="swimlane;startSize=0;" vertex="1" parent="6k20LuFGrxwpXatOsY1x-1">
          <mxGeometry x="120" y="40" width="520" height="520" as="geometry" />
        </mxCell>
        <mxCell id="WqtpwC_CBVUiofrlWMbw-4" value="Registrasi Perusahaan" style="ellipse;whiteSpace=wrap;html=1;" vertex="1" parent="6k20LuFGrxwpXatOsY1x-3">
          <mxGeometry x="200" y="40" width="120" height="80" as="geometry" />
        </mxCell>
        <mxCell id="WqtpwC_CBVUiofrlWMbw-12" value="Approve Registrasi" style="ellipse;whiteSpace=wrap;html=1;" vertex="1" parent="6k20LuFGrxwpXatOsY1x-3">
          <mxGeometry x="200" y="160" width="120" height="80" as="geometry" />
        </mxCell>
        <mxCell id="WqtpwC_CBVUiofrlWMbw-13" value="Isi data Vendor" style="ellipse;whiteSpace=wrap;html=1;" vertex="1" parent="6k20LuFGrxwpXatOsY1x-3">
          <mxGeometry x="200" y="280" width="120" height="80" as="geometry" />
        </mxCell>
        <mxCell id="WqtpwC_CBVUiofrlWMbw-14" value="Approve Vendor" style="ellipse;whiteSpace=wrap;html=1;" vertex="1" parent="6k20LuFGrxwpXatOsY1x-3">
          <mxGeometry x="200" y="400" width="120" height="80" as="geometry" />
        </mxCell>
        <mxCell id="WqtpwC_CBVUiofrlWMbw-17" style="edgeStyle=none;rounded=0;orthogonalLoop=1;jettySize=auto;html=1;exitX=0.5;exitY=0.5;exitDx=0;exitDy=0;exitPerimeter=0;entryX=0;entryY=0.5;entryDx=0;entryDy=0;" edge="1" parent="6k20LuFGrxwpXatOsY1x-1" source="6k20LuFGrxwpXatOsY1x-4" target="WqtpwC_CBVUiofrlWMbw-4">
          <mxGeometry relative="1" as="geometry" />
        </mxCell>
        <mxCell id="6k20LuFGrxwpXatOsY1x-4" value="guest" style="shape=umlActor;verticalLabelPosition=bottom;verticalAlign=top;html=1;outlineConnect=0;" vertex="1" parent="6k20LuFGrxwpXatOsY1x-1">
          <mxGeometry x="50" y="350" width="30" height="60" as="geometry" />
        </mxCell>
        <mxCell id="6k20LuFGrxwpXatOsY1x-6" value="Manager" style="shape=umlActor;verticalLabelPosition=bottom;verticalAlign=top;html=1;outlineConnect=0;" vertex="1" parent="6k20LuFGrxwpXatOsY1x-1">
          <mxGeometry x="680" y="350" width="30" height="60" as="geometry" />
        </mxCell>
        <mxCell id="6k20LuFGrxwpXatOsY1x-7" style="edgeStyle=orthogonalEdgeStyle;rounded=0;orthogonalLoop=1;jettySize=auto;html=1;exitX=0.5;exitY=1;exitDx=0;exitDy=0;" edge="1" parent="6k20LuFGrxwpXatOsY1x-1" source="6k20LuFGrxwpXatOsY1x-3" target="6k20LuFGrxwpXatOsY1x-3">
          <mxGeometry relative="1" as="geometry" />
        </mxCell>
        <mxCell id="WqtpwC_CBVUiofrlWMbw-18" style="edgeStyle=none;rounded=0;orthogonalLoop=1;jettySize=auto;html=1;exitX=0.5;exitY=0.5;exitDx=0;exitDy=0;exitPerimeter=0;entryX=1;entryY=0.5;entryDx=0;entryDy=0;" edge="1" parent="6k20LuFGrxwpXatOsY1x-1" source="6k20LuFGrxwpXatOsY1x-6" target="WqtpwC_CBVUiofrlWMbw-12">
          <mxGeometry relative="1" as="geometry">
            <mxPoint x="75" y="390" as="sourcePoint" />
            <mxPoint x="330" y="130" as="targetPoint" />
          </mxGeometry>
        </mxCell>
        <mxCell id="WqtpwC_CBVUiofrlWMbw-27" style="edgeStyle=none;rounded=0;orthogonalLoop=1;jettySize=auto;html=1;exitX=0.5;exitY=0.5;exitDx=0;exitDy=0;exitPerimeter=0;" edge="1" parent="6k20LuFGrxwpXatOsY1x-1" source="6k20LuFGrxwpXatOsY1x-4" target="WqtpwC_CBVUiofrlWMbw-13">
          <mxGeometry relative="1" as="geometry">
            <mxPoint x="75" y="390" as="sourcePoint" />
            <mxPoint x="330" y="130" as="targetPoint" />
          </mxGeometry>
        </mxCell>
        <mxCell id="WqtpwC_CBVUiofrlWMbw-28" style="edgeStyle=none;rounded=0;orthogonalLoop=1;jettySize=auto;html=1;entryX=1;entryY=0.5;entryDx=0;entryDy=0;exitX=0.5;exitY=0.5;exitDx=0;exitDy=0;exitPerimeter=0;" edge="1" parent="6k20LuFGrxwpXatOsY1x-1" source="6k20LuFGrxwpXatOsY1x-6" target="WqtpwC_CBVUiofrlWMbw-14">
          <mxGeometry relative="1" as="geometry">
            <mxPoint x="705" y="390" as="sourcePoint" />
            <mxPoint x="450" y="250" as="targetPoint" />
          </mxGeometry>
        </mxCell>
      </root>
    </mxGraphModel>
  </diagram>
  <diagram id="-A6ws5d4MbHu5yEbYUEG" name="Flowchart">
    <mxGraphModel dx="875" dy="1574" grid="1" gridSize="10" guides="1" tooltips="1" connect="1" arrows="1" fold="1" page="1" pageScale="1" pageWidth="850" pageHeight="1100" math="0" shadow="0">
      <root>
        <mxCell id="0" />
        <mxCell id="1" parent="0" />
        <mxCell id="PqxjI5PzmZxggEgpdAu6-1" value="" style="swimlane;startSize=0;" vertex="1" parent="1">
          <mxGeometry x="40" y="-180" width="360" height="560" as="geometry" />
        </mxCell>
        <mxCell id="PqxjI5PzmZxggEgpdAu6-4" value="" style="edgeStyle=none;rounded=0;orthogonalLoop=1;jettySize=auto;html=1;" edge="1" parent="PqxjI5PzmZxggEgpdAu6-1" source="PqxjI5PzmZxggEgpdAu6-2" target="PqxjI5PzmZxggEgpdAu6-3">
          <mxGeometry relative="1" as="geometry" />
        </mxCell>
        <mxCell id="PqxjI5PzmZxggEgpdAu6-2" value="start" style="ellipse;whiteSpace=wrap;html=1;aspect=fixed;" vertex="1" parent="PqxjI5PzmZxggEgpdAu6-1">
          <mxGeometry x="140" y="20" width="40" height="40" as="geometry" />
        </mxCell>
        <mxCell id="PqxjI5PzmZxggEgpdAu6-6" value="" style="edgeStyle=none;rounded=0;orthogonalLoop=1;jettySize=auto;html=1;" edge="1" parent="PqxjI5PzmZxggEgpdAu6-1" source="PqxjI5PzmZxggEgpdAu6-3" target="PqxjI5PzmZxggEgpdAu6-5">
          <mxGeometry relative="1" as="geometry" />
        </mxCell>
        <mxCell id="PqxjI5PzmZxggEgpdAu6-3" value="Registrasi" style="whiteSpace=wrap;html=1;" vertex="1" parent="PqxjI5PzmZxggEgpdAu6-1">
          <mxGeometry x="105" y="90" width="110" height="40" as="geometry" />
        </mxCell>
        <mxCell id="PqxjI5PzmZxggEgpdAu6-10" style="edgeStyle=orthogonalEdgeStyle;rounded=0;orthogonalLoop=1;jettySize=auto;html=1;exitX=1;exitY=0.5;exitDx=0;exitDy=0;entryX=1;entryY=0.5;entryDx=0;entryDy=0;" edge="1" parent="PqxjI5PzmZxggEgpdAu6-1" source="PqxjI5PzmZxggEgpdAu6-5">
          <mxGeometry relative="1" as="geometry">
            <mxPoint x="190" y="180" as="sourcePoint" />
            <mxPoint x="180" y="520" as="targetPoint" />
            <Array as="points">
              <mxPoint x="320" y="190" />
              <mxPoint x="320" y="520" />
            </Array>
          </mxGeometry>
        </mxCell>
        <mxCell id="PqxjI5PzmZxggEgpdAu6-27" value="REJECT" style="edgeLabel;html=1;align=center;verticalAlign=middle;resizable=0;points=[];" vertex="1" connectable="0" parent="PqxjI5PzmZxggEgpdAu6-10">
          <mxGeometry x="-0.4038" y="-1" relative="1" as="geometry">
            <mxPoint as="offset" />
          </mxGeometry>
        </mxCell>
        <mxCell id="PqxjI5PzmZxggEgpdAu6-13" value="" style="edgeStyle=orthogonalEdgeStyle;rounded=0;orthogonalLoop=1;jettySize=auto;html=1;" edge="1" parent="PqxjI5PzmZxggEgpdAu6-1" source="PqxjI5PzmZxggEgpdAu6-5" target="PqxjI5PzmZxggEgpdAu6-12">
          <mxGeometry relative="1" as="geometry" />
        </mxCell>
        <mxCell id="PqxjI5PzmZxggEgpdAu6-28" value="APPROVE" style="edgeLabel;html=1;align=center;verticalAlign=middle;resizable=0;points=[];" vertex="1" connectable="0" parent="PqxjI5PzmZxggEgpdAu6-13">
          <mxGeometry x="0.224" y="-1" relative="1" as="geometry">
            <mxPoint as="offset" />
          </mxGeometry>
        </mxCell>
        <mxCell id="PqxjI5PzmZxggEgpdAu6-5" value="Approval" style="rhombus;whiteSpace=wrap;html=1;" vertex="1" parent="PqxjI5PzmZxggEgpdAu6-1">
          <mxGeometry x="127.5" y="160" width="65" height="60" as="geometry" />
        </mxCell>
        <mxCell id="PqxjI5PzmZxggEgpdAu6-7" value="end" style="ellipse;whiteSpace=wrap;html=1;aspect=fixed;" vertex="1" parent="PqxjI5PzmZxggEgpdAu6-1">
          <mxGeometry x="140" y="510" width="40" height="40" as="geometry" />
        </mxCell>
        <mxCell id="PqxjI5PzmZxggEgpdAu6-11" style="edgeStyle=orthogonalEdgeStyle;rounded=0;orthogonalLoop=1;jettySize=auto;html=1;exitX=0.5;exitY=1;exitDx=0;exitDy=0;" edge="1" parent="PqxjI5PzmZxggEgpdAu6-1" source="PqxjI5PzmZxggEgpdAu6-5" target="PqxjI5PzmZxggEgpdAu6-5">
          <mxGeometry relative="1" as="geometry" />
        </mxCell>
        <mxCell id="PqxjI5PzmZxggEgpdAu6-15" value="" style="edgeStyle=orthogonalEdgeStyle;rounded=0;orthogonalLoop=1;jettySize=auto;html=1;entryX=0.5;entryY=0;entryDx=0;entryDy=0;" edge="1" parent="PqxjI5PzmZxggEgpdAu6-1" source="PqxjI5PzmZxggEgpdAu6-12" target="PqxjI5PzmZxggEgpdAu6-16">
          <mxGeometry relative="1" as="geometry">
            <mxPoint x="160" y="410" as="targetPoint" />
          </mxGeometry>
        </mxCell>
        <mxCell id="PqxjI5PzmZxggEgpdAu6-12" value="Registrasi Perusahaan berhasil" style="rounded=1;whiteSpace=wrap;html=1;" vertex="1" parent="PqxjI5PzmZxggEgpdAu6-1">
          <mxGeometry x="105" y="250" width="110" height="50" as="geometry" />
        </mxCell>
        <mxCell id="PqxjI5PzmZxggEgpdAu6-22" value="" style="edgeStyle=orthogonalEdgeStyle;rounded=0;orthogonalLoop=1;jettySize=auto;html=1;" edge="1" parent="PqxjI5PzmZxggEgpdAu6-1" source="PqxjI5PzmZxggEgpdAu6-16" target="PqxjI5PzmZxggEgpdAu6-21">
          <mxGeometry relative="1" as="geometry" />
        </mxCell>
        <mxCell id="PqxjI5PzmZxggEgpdAu6-16" value="Melengkapi data vendor" style="whiteSpace=wrap;html=1;" vertex="1" parent="PqxjI5PzmZxggEgpdAu6-1">
          <mxGeometry x="105" y="330" width="110" height="40" as="geometry" />
        </mxCell>
        <mxCell id="PqxjI5PzmZxggEgpdAu6-23" value="" style="edgeStyle=orthogonalEdgeStyle;rounded=0;orthogonalLoop=1;jettySize=auto;html=1;" edge="1" parent="PqxjI5PzmZxggEgpdAu6-1" source="PqxjI5PzmZxggEgpdAu6-21" target="PqxjI5PzmZxggEgpdAu6-7">
          <mxGeometry relative="1" as="geometry" />
        </mxCell>
        <mxCell id="PqxjI5PzmZxggEgpdAu6-39" value="REJECT" style="edgeLabel;html=1;align=center;verticalAlign=middle;resizable=0;points=[];" vertex="1" connectable="0" parent="PqxjI5PzmZxggEgpdAu6-23">
          <mxGeometry x="-0.0667" y="-2" relative="1" as="geometry">
            <mxPoint as="offset" />
          </mxGeometry>
        </mxCell>
        <mxCell id="PqxjI5PzmZxggEgpdAu6-25" value="" style="edgeStyle=orthogonalEdgeStyle;rounded=0;orthogonalLoop=1;jettySize=auto;html=1;entryX=0.5;entryY=0;entryDx=0;entryDy=0;" edge="1" parent="PqxjI5PzmZxggEgpdAu6-1" source="PqxjI5PzmZxggEgpdAu6-21" target="PqxjI5PzmZxggEgpdAu6-24">
          <mxGeometry relative="1" as="geometry">
            <Array as="points">
              <mxPoint x="65" y="430" />
            </Array>
          </mxGeometry>
        </mxCell>
        <mxCell id="PqxjI5PzmZxggEgpdAu6-37" value="APPROVE" style="edgeLabel;html=1;align=center;verticalAlign=middle;resizable=0;points=[];" vertex="1" connectable="0" parent="PqxjI5PzmZxggEgpdAu6-25">
          <mxGeometry x="-0.1532" y="1" relative="1" as="geometry">
            <mxPoint as="offset" />
          </mxGeometry>
        </mxCell>
        <mxCell id="PqxjI5PzmZxggEgpdAu6-21" value="Approval" style="rhombus;whiteSpace=wrap;html=1;" vertex="1" parent="PqxjI5PzmZxggEgpdAu6-1">
          <mxGeometry x="127.5" y="400" width="65" height="60" as="geometry" />
        </mxCell>
        <mxCell id="PqxjI5PzmZxggEgpdAu6-26" style="edgeStyle=orthogonalEdgeStyle;rounded=0;orthogonalLoop=1;jettySize=auto;html=1;exitX=0.5;exitY=1;exitDx=0;exitDy=0;entryX=0;entryY=0.5;entryDx=0;entryDy=0;" edge="1" parent="PqxjI5PzmZxggEgpdAu6-1" source="PqxjI5PzmZxggEgpdAu6-24" target="PqxjI5PzmZxggEgpdAu6-7">
          <mxGeometry relative="1" as="geometry" />
        </mxCell>
        <mxCell id="PqxjI5PzmZxggEgpdAu6-24" value="Berhasil registrasi vendor" style="rounded=1;whiteSpace=wrap;html=1;" vertex="1" parent="PqxjI5PzmZxggEgpdAu6-1">
          <mxGeometry x="10" y="460" width="110" height="50" as="geometry" />
        </mxCell>
      </root>
    </mxGraphModel>
  </diagram>
  <diagram id="pC3PepsjMH2fJjDJxMkw" name="screenflow">
    <mxGraphModel dx="1050" dy="569" grid="1" gridSize="10" guides="1" tooltips="1" connect="1" arrows="1" fold="1" page="1" pageScale="1" pageWidth="850" pageHeight="1100" math="0" shadow="0">
      <root>
        <mxCell id="0" />
        <mxCell id="1" parent="0" />
        <mxCell id="NoPBTeVQXHyHTGzCv2CT-6" value="" style="edgeStyle=orthogonalEdgeStyle;rounded=0;orthogonalLoop=1;jettySize=auto;html=1;" edge="1" parent="1" source="NoPBTeVQXHyHTGzCv2CT-2">
          <mxGeometry relative="1" as="geometry">
            <mxPoint x="480" y="180" as="targetPoint" />
          </mxGeometry>
        </mxCell>
        <mxCell id="NoPBTeVQXHyHTGzCv2CT-2" value="" style="rounded=1;whiteSpace=wrap;html=1;" vertex="1" parent="1">
          <mxGeometry x="40" y="60" width="360" height="240" as="geometry" />
        </mxCell>
        <mxCell id="NoPBTeVQXHyHTGzCv2CT-3" value="&lt;h1&gt;Heading&lt;/h1&gt;&lt;p&gt;Lorem ipsum dolor sit amet, consectetur adipisicing elit, sed do eiusmod tempor incididunt ut labore et dolore magna aliqua.&lt;/p&gt;" style="text;html=1;strokeColor=none;fillColor=none;spacing=5;spacingTop=-20;whiteSpace=wrap;overflow=hidden;rounded=0;" vertex="1" parent="1">
          <mxGeometry x="60" y="95" width="190" height="120" as="geometry" />
        </mxCell>
        <mxCell id="NoPBTeVQXHyHTGzCv2CT-4" value="Registrasi perusahaan" style="rounded=0;whiteSpace=wrap;html=1;" vertex="1" parent="1">
          <mxGeometry x="60" y="220" width="140" height="30" as="geometry" />
        </mxCell>
        <mxCell id="NoPBTeVQXHyHTGzCv2CT-20" value="" style="edgeStyle=orthogonalEdgeStyle;rounded=0;orthogonalLoop=1;jettySize=auto;html=1;" edge="1" parent="1">
          <mxGeometry relative="1" as="geometry">
            <mxPoint x="840" y="180" as="sourcePoint" />
            <mxPoint x="920" y="180" as="targetPoint" />
          </mxGeometry>
        </mxCell>
        <mxCell id="NoPBTeVQXHyHTGzCv2CT-51" value="" style="edgeStyle=orthogonalEdgeStyle;rounded=0;orthogonalLoop=1;jettySize=auto;html=1;" edge="1" parent="1" source="NoPBTeVQXHyHTGzCv2CT-33">
          <mxGeometry relative="1" as="geometry">
            <mxPoint x="1095" y="380" as="targetPoint" />
          </mxGeometry>
        </mxCell>
        <mxCell id="NoPBTeVQXHyHTGzCv2CT-33" value="" style="rounded=1;whiteSpace=wrap;html=1;" vertex="1" parent="1">
          <mxGeometry x="915" y="60" width="360" height="240" as="geometry" />
        </mxCell>
        <mxCell id="NoPBTeVQXHyHTGzCv2CT-34" value="&lt;b&gt;Status Registrasi&lt;/b&gt;" style="text;html=1;strokeColor=none;fillColor=none;align=center;verticalAlign=middle;whiteSpace=wrap;rounded=0;" vertex="1" parent="1">
          <mxGeometry x="1037.5" y="60" width="115" height="30" as="geometry" />
        </mxCell>
        <mxCell id="NoPBTeVQXHyHTGzCv2CT-44" value="FOTO" style="ellipse;whiteSpace=wrap;html=1;aspect=fixed;" vertex="1" parent="1">
          <mxGeometry x="1067.5" y="90" width="55" height="55" as="geometry" />
        </mxCell>
        <mxCell id="NoPBTeVQXHyHTGzCv2CT-48" value="" style="group" vertex="1" connectable="0" parent="1">
          <mxGeometry x="945" y="150" width="292.5" height="105" as="geometry" />
        </mxCell>
        <mxCell id="NoPBTeVQXHyHTGzCv2CT-35" value="Nama" style="text;html=1;strokeColor=none;fillColor=none;align=center;verticalAlign=middle;whiteSpace=wrap;rounded=0;" vertex="1" parent="NoPBTeVQXHyHTGzCv2CT-48">
          <mxGeometry width="75" height="25" as="geometry" />
        </mxCell>
        <mxCell id="NoPBTeVQXHyHTGzCv2CT-36" value="" style="rounded=0;whiteSpace=wrap;html=1;" vertex="1" parent="NoPBTeVQXHyHTGzCv2CT-48">
          <mxGeometry x="62.5" width="230" height="20" as="geometry" />
        </mxCell>
        <mxCell id="NoPBTeVQXHyHTGzCv2CT-37" value="Email" style="text;html=1;strokeColor=none;fillColor=none;align=center;verticalAlign=middle;whiteSpace=wrap;rounded=0;" vertex="1" parent="NoPBTeVQXHyHTGzCv2CT-48">
          <mxGeometry x="7.5" y="30" width="60" height="20" as="geometry" />
        </mxCell>
        <mxCell id="NoPBTeVQXHyHTGzCv2CT-38" value="" style="rounded=0;whiteSpace=wrap;html=1;" vertex="1" parent="NoPBTeVQXHyHTGzCv2CT-48">
          <mxGeometry x="62.5" y="30" width="230" height="20" as="geometry" />
        </mxCell>
        <mxCell id="NoPBTeVQXHyHTGzCv2CT-39" value="Nomor" style="text;html=1;strokeColor=none;fillColor=none;align=center;verticalAlign=middle;whiteSpace=wrap;rounded=0;" vertex="1" parent="NoPBTeVQXHyHTGzCv2CT-48">
          <mxGeometry x="7.5" y="60" width="60" height="20" as="geometry" />
        </mxCell>
        <mxCell id="NoPBTeVQXHyHTGzCv2CT-40" value="" style="rounded=0;whiteSpace=wrap;html=1;" vertex="1" parent="NoPBTeVQXHyHTGzCv2CT-48">
          <mxGeometry x="62.5" y="60" width="230" height="20" as="geometry" />
        </mxCell>
        <mxCell id="NoPBTeVQXHyHTGzCv2CT-45" value="Status" style="text;html=1;strokeColor=none;fillColor=none;align=center;verticalAlign=middle;whiteSpace=wrap;rounded=0;" vertex="1" parent="NoPBTeVQXHyHTGzCv2CT-48">
          <mxGeometry x="7.5" y="85" width="60" height="20" as="geometry" />
        </mxCell>
        <mxCell id="NoPBTeVQXHyHTGzCv2CT-46" value="" style="rounded=0;whiteSpace=wrap;html=1;" vertex="1" parent="NoPBTeVQXHyHTGzCv2CT-48">
          <mxGeometry x="62.5" y="85" width="230" height="20" as="geometry" />
        </mxCell>
        <mxCell id="NoPBTeVQXHyHTGzCv2CT-49" value="Lanjutkan ke Data Vendor" style="rounded=0;whiteSpace=wrap;html=1;fontStyle=1" vertex="1" parent="1">
          <mxGeometry x="1020.63" y="270" width="148.75" height="20" as="geometry" />
        </mxCell>
        <mxCell id="NoPBTeVQXHyHTGzCv2CT-53" value="" style="rounded=1;whiteSpace=wrap;html=1;fontStyle=1" vertex="1" parent="1">
          <mxGeometry x="480" y="60" width="360" height="240" as="geometry" />
        </mxCell>
        <mxCell id="NoPBTeVQXHyHTGzCv2CT-54" value="&lt;span&gt;Registrasi&lt;/span&gt;" style="text;html=1;strokeColor=none;fillColor=none;align=center;verticalAlign=middle;whiteSpace=wrap;rounded=0;fontStyle=1" vertex="1" parent="1">
          <mxGeometry x="630" y="60" width="60" height="30" as="geometry" />
        </mxCell>
        <mxCell id="NoPBTeVQXHyHTGzCv2CT-55" value="Nama" style="text;html=1;strokeColor=none;fillColor=none;align=center;verticalAlign=middle;whiteSpace=wrap;rounded=0;fontStyle=1" vertex="1" parent="1">
          <mxGeometry x="510" y="90" width="60" height="20" as="geometry" />
        </mxCell>
        <mxCell id="NoPBTeVQXHyHTGzCv2CT-56" value="" style="rounded=0;whiteSpace=wrap;html=1;fontStyle=1" vertex="1" parent="1">
          <mxGeometry x="520" y="110" width="280" height="20" as="geometry" />
        </mxCell>
        <mxCell id="NoPBTeVQXHyHTGzCv2CT-57" value="Email" style="text;html=1;strokeColor=none;fillColor=none;align=center;verticalAlign=middle;whiteSpace=wrap;rounded=0;fontStyle=1" vertex="1" parent="1">
          <mxGeometry x="510" y="130" width="60" height="20" as="geometry" />
        </mxCell>
        <mxCell id="NoPBTeVQXHyHTGzCv2CT-58" value="" style="rounded=0;whiteSpace=wrap;html=1;fontStyle=1" vertex="1" parent="1">
          <mxGeometry x="520" y="150" width="280" height="20" as="geometry" />
        </mxCell>
        <mxCell id="NoPBTeVQXHyHTGzCv2CT-59" value="Nomor" style="text;html=1;strokeColor=none;fillColor=none;align=center;verticalAlign=middle;whiteSpace=wrap;rounded=0;fontStyle=1" vertex="1" parent="1">
          <mxGeometry x="510" y="170" width="60" height="20" as="geometry" />
        </mxCell>
        <mxCell id="NoPBTeVQXHyHTGzCv2CT-60" value="" style="rounded=0;whiteSpace=wrap;html=1;fontStyle=1" vertex="1" parent="1">
          <mxGeometry x="520" y="190" width="280" height="20" as="geometry" />
        </mxCell>
        <mxCell id="NoPBTeVQXHyHTGzCv2CT-61" value="Foto" style="text;html=1;strokeColor=none;fillColor=none;align=center;verticalAlign=middle;whiteSpace=wrap;rounded=0;fontStyle=1" vertex="1" parent="1">
          <mxGeometry x="500" y="215" width="60" height="20" as="geometry" />
        </mxCell>
        <mxCell id="NoPBTeVQXHyHTGzCv2CT-62" value="" style="rounded=0;whiteSpace=wrap;html=1;fontStyle=1" vertex="1" parent="1">
          <mxGeometry x="520" y="235" width="280" height="20" as="geometry" />
        </mxCell>
        <mxCell id="NoPBTeVQXHyHTGzCv2CT-63" value="Submit" style="rounded=0;whiteSpace=wrap;html=1;fontStyle=1" vertex="1" parent="1">
          <mxGeometry x="630" y="260" width="60" height="20" as="geometry" />
        </mxCell>
        <mxCell id="NoPBTeVQXHyHTGzCv2CT-76" value="" style="edgeStyle=orthogonalEdgeStyle;rounded=0;orthogonalLoop=1;jettySize=auto;html=1;" edge="1" parent="1" source="NoPBTeVQXHyHTGzCv2CT-64" target="NoPBTeVQXHyHTGzCv2CT-75">
          <mxGeometry relative="1" as="geometry" />
        </mxCell>
        <mxCell id="NoPBTeVQXHyHTGzCv2CT-64" value="" style="rounded=1;whiteSpace=wrap;html=1;fontStyle=1" vertex="1" parent="1">
          <mxGeometry x="915.01" y="380" width="360" height="240" as="geometry" />
        </mxCell>
        <mxCell id="NoPBTeVQXHyHTGzCv2CT-65" value="&lt;span&gt;Melengkapi Data Vendero&lt;/span&gt;" style="text;html=1;strokeColor=none;fillColor=none;align=center;verticalAlign=middle;whiteSpace=wrap;rounded=0;fontStyle=1" vertex="1" parent="1">
          <mxGeometry x="1013.75" y="380" width="154.99" height="30" as="geometry" />
        </mxCell>
        <mxCell id="NoPBTeVQXHyHTGzCv2CT-66" value="Bidang Usaha" style="text;html=1;strokeColor=none;fillColor=none;align=center;verticalAlign=middle;whiteSpace=wrap;rounded=0;fontStyle=1" vertex="1" parent="1">
          <mxGeometry x="945.01" y="410" width="104.99" height="20" as="geometry" />
        </mxCell>
        <mxCell id="NoPBTeVQXHyHTGzCv2CT-67" value="" style="rounded=0;whiteSpace=wrap;html=1;fontStyle=1" vertex="1" parent="1">
          <mxGeometry x="955.01" y="430" width="280" height="20" as="geometry" />
        </mxCell>
        <mxCell id="NoPBTeVQXHyHTGzCv2CT-68" value="Jenis Perusahaan" style="text;html=1;strokeColor=none;fillColor=none;align=center;verticalAlign=middle;whiteSpace=wrap;rounded=0;fontStyle=1" vertex="1" parent="1">
          <mxGeometry x="945.01" y="460" width="124.99" height="20" as="geometry" />
        </mxCell>
        <mxCell id="NoPBTeVQXHyHTGzCv2CT-69" value="" style="rounded=0;whiteSpace=wrap;html=1;fontStyle=1" vertex="1" parent="1">
          <mxGeometry x="955.01" y="480" width="280" height="20" as="geometry" />
        </mxCell>
        <mxCell id="NoPBTeVQXHyHTGzCv2CT-74" value="Submit" style="rounded=0;whiteSpace=wrap;html=1;fontStyle=1" vertex="1" parent="1">
          <mxGeometry x="1065.01" y="550" width="60" height="20" as="geometry" />
        </mxCell>
        <mxCell id="NoPBTeVQXHyHTGzCv2CT-75" value="" style="rounded=1;whiteSpace=wrap;html=1;fontStyle=1" vertex="1" parent="1">
          <mxGeometry x="475.01" y="380" width="360" height="240" as="geometry" />
        </mxCell>
        <mxCell id="NoPBTeVQXHyHTGzCv2CT-81" value="" style="edgeStyle=orthogonalEdgeStyle;rounded=0;orthogonalLoop=1;jettySize=auto;html=1;" edge="1" parent="1" source="NoPBTeVQXHyHTGzCv2CT-77" target="NoPBTeVQXHyHTGzCv2CT-80">
          <mxGeometry relative="1" as="geometry" />
        </mxCell>
        <mxCell id="NoPBTeVQXHyHTGzCv2CT-77" value="" style="ellipse;whiteSpace=wrap;html=1;aspect=fixed;fillColor=#d5e8d4;strokeColor=#82b366;" vertex="1" parent="1">
          <mxGeometry x="530" y="480" width="30" height="30" as="geometry" />
        </mxCell>
        <mxCell id="NoPBTeVQXHyHTGzCv2CT-78" value="&lt;b&gt;Status Registrasi&lt;/b&gt;" style="text;html=1;strokeColor=none;fillColor=none;align=center;verticalAlign=middle;whiteSpace=wrap;rounded=0;" vertex="1" parent="1">
          <mxGeometry x="597.51" y="390" width="115" height="30" as="geometry" />
        </mxCell>
        <mxCell id="NoPBTeVQXHyHTGzCv2CT-84" value="" style="edgeStyle=orthogonalEdgeStyle;rounded=0;orthogonalLoop=1;jettySize=auto;html=1;" edge="1" parent="1" source="NoPBTeVQXHyHTGzCv2CT-80" target="NoPBTeVQXHyHTGzCv2CT-83">
          <mxGeometry relative="1" as="geometry" />
        </mxCell>
        <mxCell id="NoPBTeVQXHyHTGzCv2CT-80" value="" style="ellipse;whiteSpace=wrap;html=1;aspect=fixed;fillColor=#d5e8d4;strokeColor=#82b366;" vertex="1" parent="1">
          <mxGeometry x="580" y="480" width="30" height="30" as="geometry" />
        </mxCell>
        <mxCell id="NoPBTeVQXHyHTGzCv2CT-86" value="" style="edgeStyle=orthogonalEdgeStyle;rounded=0;orthogonalLoop=1;jettySize=auto;html=1;" edge="1" parent="1" source="NoPBTeVQXHyHTGzCv2CT-83" target="NoPBTeVQXHyHTGzCv2CT-85">
          <mxGeometry relative="1" as="geometry" />
        </mxCell>
        <mxCell id="NoPBTeVQXHyHTGzCv2CT-83" value="" style="ellipse;whiteSpace=wrap;html=1;aspect=fixed;fillColor=#d5e8d4;strokeColor=#82b366;" vertex="1" parent="1">
          <mxGeometry x="630" y="480" width="30" height="30" as="geometry" />
        </mxCell>
        <mxCell id="NoPBTeVQXHyHTGzCv2CT-88" value="" style="edgeStyle=orthogonalEdgeStyle;rounded=0;orthogonalLoop=1;jettySize=auto;html=1;" edge="1" parent="1" source="NoPBTeVQXHyHTGzCv2CT-85" target="NoPBTeVQXHyHTGzCv2CT-87">
          <mxGeometry relative="1" as="geometry" />
        </mxCell>
        <mxCell id="NoPBTeVQXHyHTGzCv2CT-85" value="" style="ellipse;whiteSpace=wrap;html=1;aspect=fixed;fillColor=#dae8fc;strokeColor=#6c8ebf;" vertex="1" parent="1">
          <mxGeometry x="680" y="480" width="30" height="30" as="geometry" />
        </mxCell>
        <mxCell id="NoPBTeVQXHyHTGzCv2CT-87" value="" style="ellipse;whiteSpace=wrap;html=1;aspect=fixed;" vertex="1" parent="1">
          <mxGeometry x="730" y="480" width="30" height="30" as="geometry" />
        </mxCell>
        <mxCell id="NoPBTeVQXHyHTGzCv2CT-91" value="Register" style="text;html=1;strokeColor=none;fillColor=none;align=center;verticalAlign=middle;whiteSpace=wrap;rounded=0;" vertex="1" parent="1">
          <mxGeometry x="515" y="510" width="60" height="30" as="geometry" />
        </mxCell>
        <mxCell id="NoPBTeVQXHyHTGzCv2CT-92" value="Approval" style="text;html=1;strokeColor=none;fillColor=none;align=center;verticalAlign=middle;whiteSpace=wrap;rounded=0;" vertex="1" parent="1">
          <mxGeometry x="565" y="455" width="60" height="30" as="geometry" />
        </mxCell>
        <mxCell id="NoPBTeVQXHyHTGzCv2CT-93" value="Data Vendor" style="text;html=1;strokeColor=none;fillColor=none;align=center;verticalAlign=middle;whiteSpace=wrap;rounded=0;" vertex="1" parent="1">
          <mxGeometry x="602.5" y="510" width="85" height="30" as="geometry" />
        </mxCell>
        <mxCell id="NoPBTeVQXHyHTGzCv2CT-94" value="Approval" style="text;html=1;strokeColor=none;fillColor=none;align=center;verticalAlign=middle;whiteSpace=wrap;rounded=0;" vertex="1" parent="1">
          <mxGeometry x="665" y="455" width="60" height="30" as="geometry" />
        </mxCell>
        <mxCell id="NoPBTeVQXHyHTGzCv2CT-95" value="Tender" style="text;html=1;strokeColor=none;fillColor=none;align=center;verticalAlign=middle;whiteSpace=wrap;rounded=0;" vertex="1" parent="1">
          <mxGeometry x="702.5" y="510" width="85" height="30" as="geometry" />
        </mxCell>
        <mxCell id="NoPBTeVQXHyHTGzCv2CT-97" value="" style="rounded=1;whiteSpace=wrap;html=1;" vertex="1" parent="1">
          <mxGeometry x="40" y="400" width="360" height="240" as="geometry" />
        </mxCell>
        <mxCell id="NoPBTeVQXHyHTGzCv2CT-98" value="&lt;h1&gt;Forbiden&lt;/h1&gt;&lt;p&gt;Selama proses pengajuan vendor fitur tender tidak dapat dilakukan.&lt;br&gt;Silahkan kembali lagi setelah status vendor telah approve.&lt;/p&gt;" style="text;html=1;strokeColor=none;fillColor=none;spacing=5;spacingTop=-20;whiteSpace=wrap;overflow=hidden;rounded=0;" vertex="1" parent="1">
          <mxGeometry x="60" y="435" width="190" height="120" as="geometry" />
        </mxCell>
        <mxCell id="NoPBTeVQXHyHTGzCv2CT-99" value="Status Registrasi" style="rounded=0;whiteSpace=wrap;html=1;" vertex="1" parent="1">
          <mxGeometry x="60" y="560" width="140" height="30" as="geometry" />
        </mxCell>
      </root>
    </mxGraphModel>
  </diagram>
</mxfile>
